<?xml version="1.0" encoding="UTF-8"?>
<svg enable-background="new 0 0 480.8 480.8" version="1.1" viewBox="0 0 480.8 480.8" xmlns="http://www.w3.org/2000/svg">
 <path d="m364.4 423.2c0 41.6-29.6 56.8-71.2 56.8h-66.4c-41.6 0-78.4-15.2-78.4-56.8v-366.4c0-41.6 36.8-56.8 78.4-56.8h66.4c41.6 0 71.2 15.2 71.2 56.8v366.4z" fill="#4C5254"/>
 <path d="M293.2,0c41.6,0,71.2,15.2,71.2,56.8V424c0,41.6-28.8,56.8-74.4,56.8" fill="#2F423F"/>
 <path d="m404.4 308.8c0 41.6-33.6 83.2-75.2 83.2h-145.6c-41.6 0-75.2-41.6-75.2-83.2v-145.6c0-41.6 33.6-75.2 75.2-75.2h145.6c41.6 0 75.2 33.6 75.2 75.2v145.6z" fill="#3CC676"/>
 <path d="m188.4 88h144.8c41.6 0 71.2 37.6 71.2 78.4v146.4c0 41.6-40 78.4-72.8 78.4" fill="#0AA06E"/>
 <path d="m380.4 298.4c0 32.8-28.8 61.6-62.4 61.6h-116c-32.8 0-61.6-28.8-61.6-61.6v-116.8c0-32.8 28-61.6 61.6-61.6h116.8c32.8 0 62.4 28.8 62.4 61.6v116.8h-0.8z" fill="#4C5254"/>
 <path d="M204.4,120H318c32.8,0,62.4,28.8,62.4,61.6v116.8c0,32.8-24.8,61.6-57.6,61.6" fill="#2F423F"/>
 <g fill="#F7F7EB">
  <path d="m210.8 213.6v-16h-27.2v-5.6l26.4-37.6h8.8v36.8h8v6.4h-8v16h-8zm0-22.4v-28c-1.6 3.2-3.2 5.6-4.8 8.8l-14.4 20h19.2v-0.8z"/>
  <path d="m233.2 176.8c0-3.2 2.4-5.6 5.6-5.6s5.6 2.4 5.6 5.6-2.4 5.6-5.6 5.6-5.6-2.4-5.6-5.6zm0 32c0-3.2 2.4-5.6 5.6-5.6s5.6 2.4 5.6 5.6-2.4 5.6-5.6 5.6-5.6-2.4-5.6-5.6z"/>
  <path d="m250.8 213.6v-5.6l6.4-6.4c15.2-14.4 21.6-21.6 21.6-30.4 0-5.6-3.2-11.2-12-11.2-5.6 0-9.6 2.4-12.8 4.8l-1.6-5.6c4-3.2 9.6-5.6 16.8-5.6 12.8 0 17.6 8.8 17.6 16.8 0 11.2-8 19.2-20 31.2l-4.8 4h26.4v6.4h-37.6v1.6z"/>
  <path d="m336.4 183.2c0 20-7.2 31.2-20 31.2-11.2 0-19.2-10.4-19.2-30.4s8.8-30.4 20-30.4c12 0 19.2 11.2 19.2 29.6zm-32 0.8c0 15.2 4.8 24 12 24 8 0 12-9.6 12-24.8 0-14.4-4-24-12-24-6.4 0.8-12 8.8-12 24.8z"/>
 </g>
 <circle cx="259.6" cy="278.4" r="39.2" fill="#FFC114"/>
 <path d="m287.6 251.2c15.2 15.2 15.2 40 0 55.2s-40 15.2-55.2 0" fill="#FCA12A"/>
 <circle cx="188.4" cy="278.4" r="20" fill="#9090DD"/>
 <path d="m202 264c8 8 8 20.8 0 28.8s-20.8 8-28.8 0" fill="#6965A8"/>
 <circle cx="331.6" cy="278.4" r="20" fill="#3AC2F2"/>
 <path d="m346 264c8 8 8 20.8 0 28.8s-20.8 8-28.8 0" fill="#009CC6"/>
 <path d="m108.4 258.4c0 8.8-7.2 16-16 16s-16-7.2-16-16v-36c0-8.8 7.2-16 16-16s16 7.2 16 16v36z" fill="#D6D6D6"/>
 <path d="m76.4 220.8c0-8.8 7.2-15.2 16.8-15.2 8.8 0 15.2 7.2 15.2 16v34.4" fill="#BCBCBC"/>
</svg>
